<?xml version="1.0" encoding="UTF-8" standalone="no"?>
<svg
   viewBox="-20.237 0 377.325 407.5323"
   version="1.1"
   id="svg8"
   sodipodi:docname="rdf-play-5-path.svg"
   inkscape:version="1.4.4 (dcaf3e7d9e, 2026-05-05)"
   width="377.32501"
   height="407.53232"
   xmlns:inkscape="http://www.inkscape.org/namespaces/inkscape"
   xmlns:sodipodi="http://sodipodi.sourceforge.net/DTD/sodipodi-0.dtd"
   xmlns="http://www.w3.org/2000/svg"
   xmlns:svg="http://www.w3.org/2000/svg">
  <defs
     id="defs8" />
  <sodipodi:namedview
     id="namedview8"
     pagecolor="#ffffff"
     bordercolor="#000000"
     borderopacity="0.25"
     inkscape:showpageshadow="2"
     inkscape:pageopacity="0.0"
     inkscape:pagecheckerboard="0"
     inkscape:deskcolor="#d1d1d1"
     inkscape:zoom="1.5228377"
     inkscape:cx="158.58551"
     inkscape:cy="234.75909"
     inkscape:window-width="1920"
     inkscape:window-height="1011"
     inkscape:window-x="0"
     inkscape:window-y="0"
     inkscape:window-maximized="1"
     inkscape:current-layer="svg8" />
  <path
     d="m 317.56417,267.34316 c -14.82384,-4.32588 -20.93669,-28.82401 -22.74509,-46.4564 -1.78185,-26.13135 -4.27437,-55.87524 11.96075,-78.15285 3.54541,-5.71526 25.2285,-16.7891 30.43186,-30.78795 22.40181,-35.881395 6.0312,-88.199845 -32.80617,-104.943427 -38.37068,-19.380028 -89.81174,2.7528474 -102.12279,43.941115 -8.11865,18.935568 2.3971,35.118798 -9.11934,50.518352 -17.42378,22.81967 -43.67132,38.64843 -70.94041,46.82496 -20.90577,4.52463 -29.746168,-0.16899 -47.039073,-7.73408 -40.431505,-13.16902 -87.48801,15.60339 -94.135764,57.62821 -8.9122,40.82427 23.0473068,84.09383 64.596795,87.76704 19.509279,2.31732 39.814385,-3.5387 55.104232,-15.87297 14.67411,-6.18263 39.04695,0.004 55.10344,8.5704 21.77245,11.00136 47.5149,25.66628 52.46856,51.7316 -2.57461,40.87237 33.84804,78.71023 74.93636,77.152 42.44266,0.87847 79.11093,-40.16268 73.41523,-82.24257 -2.40809,-24.25189 -17.46143,-46.68685 -39.10859,-57.94343 z M 161.05475,254.49684 c -45.85348,-31.05209 -44.29304,-61.07833 -6.33393,-89.8584 21.88569,-14.88446 46.73644,-32.02512 74.45147,-29.17322 21.14244,6.0099 36.0637,21.90313 37.14552,44.71366 3.39086,27.51603 5.93354,59.46443 -11.99478,82.75326 -33.14805,28.05398 -59.41846,10.91659 -93.26828,-8.4353 z"
     fill="#0C479C"
     id="path2"
     style="fill:#331e38;fill-opacity:1"
     sodipodi:nodetypes="ccccccccccccccccccccccc"
     inkscape:label="connect" />
  <ellipse
     style="display:none;fill:#f2f2f2;fill-opacity:1;stroke:none;stroke-width:15.1464;stroke-linejoin:round;stroke-miterlimit:1000"
     id="path10"
     cx="282.61972"
     cy="333.12991"
     rx="74.284218"
     ry="74.402405"
     inkscape:label="bot-right" />
  <rect
     style="display:none;fill:#f2f2f2;fill-opacity:1;stroke:none;stroke-width:13.3684;stroke-linejoin:round;stroke-miterlimit:1000"
     id="rect12"
     width="228.22063"
     height="120.9258"
     x="-20.237"
     y="286.60651"
     inkscape:label="bot-allign" />
  <rect
     style="display:none;fill:#f2f2f2;fill-opacity:1;stroke:none;stroke-width:15.9373;stroke-linejoin:round;stroke-miterlimit:1000"
     id="rect11"
     width="219.13618"
     height="137.25044"
     x="-20.237"
     y="1.0658141e-14"
     inkscape:label="top-allign" />
  <ellipse
     style="display:none;fill:#f2f2f2;fill-opacity:1;stroke:none;stroke-width:23.5799;stroke-linejoin:round;stroke-miterlimit:1000"
     id="path11"
     ry="74.874008"
     rx="74.061424"
     cy="211.85281"
     cx="53.824421"
     inkscape:label="left" />
  <ellipse
     style="display:none;fill:#f2f2f2;fill-opacity:1;stroke:none;stroke-width:18.5614;stroke-linejoin:round;stroke-miterlimit:1000"
     id="path9"
     cx="273.12955"
     cy="73.761063"
     rx="74.182137"
     ry="73.761063"
     inkscape:label="top-right" />
  <path
     id="path7-1"
     d="m 90.800322,242.89328 -11.862989,0.51343 c -6.52605,0.18962 -10.909333,-2.57022 -12.843827,-8.27932 -7.160743,0.33001 -12.495419,-5.22771 -12.642535,-14.10563 l -0.842935,-19.02388 c -0.04667,-1.31013 -0.602032,-2.15991 -1.897653,-2.10507 -1.823712,0.006 -2.553882,0.85885 -6.202303,5.52662 -7.744182,10.0606 -16.532459,15.14402 -27.297128,15.51045 l -6.015577,-0.30805 c -1.4216221,-0.26536 -2.0399971,-0.90155 -2.0042451,-1.91614 -0.04664,-1.31012 0.576931,-1.97399 1.8095421,-1.81524 1.906131,0.28951 4.418061,0.42257 6.189845,0.40639 10.047531,-0.52203 17.013827,-4.5831 25.260237,-15.12647 3.531744,-4.42698 5.606318,-5.86281 8.740243,-5.91539 3.119359,-0.0609 5.03163,2.05245 5.135578,5.50268 l 0.815605,20.02387 c 0.205658,6.05601 4.130124,10.07109 9.672628,9.82493 6.162568,-0.39466 9.540932,-4.14179 9.244784,-10.47895 l -1.404851,-39.93965 c -0.320661,-4.05156 -1.515778,-6.0093 -5.349658,-9.74317 l -6.904575,-6.44305 c -3.550051,-3.28623 -6.403972,-4.64687 -8.886573,-4.76338 -3.201743,-0.23467 -7.939687,1.71093 -17.76211,7.74398 -15.651342,9.47129 -36.30180751,24.61238 -35.63091764,49.95499 1.27997994,32.41513 17.84273864,46.91212 53.19397864,45.4483 l 16.995177,-0.47351 c -1.640781,-1.71114 -2.507861,-4.25048 -2.817299,-7.77845 -0.112601,-1.63477 0.61751,-2.48759 1.738672,-2.64083 1.121153,-0.15325 1.957581,0.60595 1.89765,2.10507 0.118789,5.7004 2.907873,8.05926 9.409588,7.91348 l 11.10566,-0.4615 c 6.055987,-0.20565 9.959276,-4.44211 9.734056,-9.95361 -0.31218,-5.86713 -4.458279,-9.48931 -10.478957,-9.24478 z m -12.534697,-60.3956 0.382217,12.09557 15.79162,-0.61607 c 6.055988,-0.20565 10.366468,-4.21244 10.141238,-9.72396 -0.43514,-5.6491 -4.647119,-9.59583 -10.667811,-9.35128 l -16.912734,0.76938 c 0.831626,1.75289 1.102684,3.95604 1.261775,6.90103 z m -8.659097,52.31235 c 1.722897,3.80772 4.782427,5.24605 9.996417,5.14028 l 15.617333,-0.71435 c 6.039562,-0.17659 9.959262,-4.44214 9.734022,-9.95364 -0.21707,-5.52609 -4.56478,-9.30044 -10.585518,-9.0558 l -14.808062,0.67253 c 0.313851,7.63072 -3.14716,12.88328 -9.941525,13.95629 z m 9.078331,-36.61172 0.842946,19.02387 18.441006,-0.69303 c 6.039599,-0.17655 9.959289,-4.4421 9.545129,-10.06018 -0.11878,-5.70038 -4.24025,-9.36633 -10.396379,-8.9491 l -18.440994,0.69302 z"
     style="fill:#ffffff;fill-opacity:1;stroke-width:0.356046"
     inkscape:label="steen" />
  <path
     id="path6-4"
     d="m 273.80948,325.65992 7.52456,-6.29084 -33.31037,-29.60453 c -3.77205,-3.30412 -7.4674,-4.36576 -11.21239,-1.24528 -3.35012,2.84844 -4.44821,7.85257 0.63308,12.24731 l 32.8394,28.97593 c 0.70143,-0.98134 1.86088,-2.67759 3.52632,-4.08256 z m 51.92633,14.03925 -6.872,-14.95894 c -1.91495,-4.51734 -3.98106,-7.01654 -7.23366,-8.78156 l -6.45737,-3.86551 c -3.95214,-2.0429 -6.96337,-2.81518 -10.69872,0.33404 l -19.62559,16.15826 c -3.32139,2.64719 -3.74097,6.83115 -1.04217,9.98203 2.69876,3.15089 6.83114,3.74096 9.98204,1.04219 l 7.30013,-5.96688 c 1.86481,-1.55449 4.39669,-2.31546 6.10077,-0.25137 1.40307,1.6789 1.52004,3.54389 0.94709,6.40542 -2.70372,12.50995 -1.27558,18.03954 6.41829,27.24287 2.99781,3.54962 6.53025,6.99742 9.90384,9.16288 1.07526,0.33159 1.40307,1.67892 0.56555,2.46283 -0.80306,0.44665 -1.55247,0.51758 -2.18501,-0.13396 -4.34706,-3.20824 -7.93316,-6.2804 -10.58037,-9.6018 -7.26434,-8.56691 -9.23703,-13.83199 -7.70052,-26.12546 0.6725,-4.70917 1.47747,-6.4152 0.48072,-7.29673 -0.29519,-0.42547 -0.79542,-0.85285 -1.63491,-0.0554 l -7.95369,6.61274 c -4.60363,3.76459 -10.77893,2.14324 -14.11236,-1.8373 -1.85161,-2.46855 -2.36176,-5.32036 -2.05329,-7.48043 l -9.38602,-7.61057 c -3.77203,-3.3041 -7.43864,-4.56696 -10.98825,-1.56919 -3.75082,2.96903 -4.41756,7.63788 -0.87535,11.30639 l 15.85317,15.33814 c 4.39301,4.13205 7.46354,4.39267 10.62788,1.69578 0.80306,-0.44663 1.35314,-0.36807 1.82467,0.26057 0.79545,0.85284 0.69198,1.57737 -0.15889,2.35939 -4.5787,3.59001 -9.19389,2.54776 -13.8728,-1.98112 L 248.386,339.12676 c -3.57283,-3.45356 -7.30269,-4.36969 -10.81368,-1.54426 -3.35011,2.84839 -4.19143,7.49228 -0.64534,10.94203 l 13.45144,12.79103 c 4.52923,4.32933 7.43865,4.56695 10.78873,1.71875 0.62864,-0.47155 1.42595,-0.87789 2.21373,-0.0672 0.97179,1.056 0.0921,2.03927 -0.76267,2.65651 -2.068,1.73082 -4.90646,2.24266 -6.93063,2.13176 l 10.51904,12.71453 c 15.21512,18.36827 34.83165,18.95174 51.51891,5.15309 15.47634,-12.89009 17.02798,-26.44073 8.04155,-45.95747 z m -42.72318,-21.73201 7.72183,-6.4268 4.84904,-2.99009 -18.16774,-32.5887 c -3.21072,-5.98949 -8.15569,-5.96989 -11.73564,-2.75744 -3.75084,2.96905 -3.34034,6.71021 -0.99419,10.89222 l 18.36097,33.91888 z"
     style="fill:#ffffff;fill-opacity:1;stroke-width:0.289123"
     inkscape:label="schaar" />
  <path
     d="M -0.04626824,345.43453 H 2.4469192 q 5.3542223,0 8.0517698,-2.12534 2.738419,-2.12534 2.738419,-6.90736 0,-4.45504 -2.452316,-6.58038 -2.4114436,-2.12534 -7.6021781,-2.12534 H -0.04626824 Z M 26.070892,335.95224 q 0,3.9237 -1.185286,7.52043 -1.185285,3.59673 -3.923704,6.33515 -2.697548,2.73842 -7.152587,4.3733 Q 9.3951466,355.816 2.8556385,355.816 h -2.90190674 v 21.2534 H -12.716565 V 317.31464 H 3.8774366 q 5.7629415,0 9.9318784,1.3079 4.209808,1.26703 6.907355,3.67848 2.738419,2.37057 4.046321,5.84468 1.307901,3.43324 1.307901,7.80654 z m 19.764339,41.11716 v -59.75476 h 12.670297 v 49.29154 h 21.743864 v 10.46322 z m 87.366509,0 -4.0872,-14.22343 h -20.59945 l -4.12806,14.22343 H 91.594116 l 19.414164,-59.99999 h 15.49046 l 19.49591,59.99999 z m -7.02997,-24.85013 -3.84197,-13.07902 q -0.24523,-0.73569 -0.73569,-2.41144 -0.49046,-1.67575 -1.06267,-3.67848 -0.53134,-2.04359 -1.0218,-4.08719 -0.49046,-2.0436 -0.69482,-3.47411 -0.16349,0.89918 -0.44959,2.12534 -0.24523,1.22615 -0.61308,2.6158 -0.32698,1.34877 -0.69482,2.73842 -0.36785,1.38964 -0.69483,2.6158 -0.32697,1.22616 -0.61308,2.16621 -0.24523,0.94006 -0.36784,1.38965 l -3.80109,13.07902 z m 48.57904,-10.29973 10.79019,-24.6049 h 13.65123 l -18.14714,36.49863 V 377.0694 H 168.45654 V 354.22199 L 150.3094,317.31464 h 13.73297 z"
     id="text8"
     style="font-weight:bold;font-size:83.7057px;line-height:0;font-family:'Droid Sans';-inkscape-font-specification:'Droid Sans Bold';letter-spacing:8.48369px;fill:#331e38;stroke-width:9.61929;stroke-linejoin:round;stroke-miterlimit:1000"
     inkscape:label="play"
     aria-label="PLAY" />
  <path
     d="m 24.631538,65.273726 h 3.433242 q 5.272478,0 7.561306,-2.084468 2.288828,-2.12534 2.288828,-6.212533 0,-4.25068 -2.452316,-6.049045 -2.452315,-1.798365 -7.602178,-1.798365 h -3.228882 z m 0,10.299725 V 98.502602 H 11.961241 V 38.747846 h 16.34877 q 11.485012,0 16.96185,4.45504 5.476838,4.414168 5.476838,13.446864 0,3.065394 -0.817439,5.558582 -0.817438,2.493187 -2.207084,4.45504 -1.348773,1.92098 -3.147138,3.392369 -1.757493,1.430518 -3.719345,2.411444 4.536783,7.275203 8.133513,12.997272 1.553133,2.452316 2.98365,4.782016 1.47139,2.329699 2.615804,4.168936 1.144414,1.839237 1.880108,2.942779 l 0.694823,1.144414 H 43.105649 L 30.149248,75.573451 Z m 94.764322,-7.520434 q 0,7.561306 -2.08447,13.283376 -2.04359,5.681198 -5.9673,9.523159 -3.88283,3.801089 -9.56403,5.722069 -5.640323,1.920981 -12.874654,1.920981 H 73.169714 V 38.747846 h 17.493185 q 6.58038,0 11.852861,1.880109 5.31335,1.880108 9.07356,5.599454 3.76022,3.678473 5.76295,9.155311 2.04359,5.476838 2.04359,12.670297 z m -12.83378,0.326975 q 0,-4.986375 -1.0218,-8.583104 -0.98093,-3.637601 -2.90191,-6.008173 -1.88011,-2.370572 -4.659397,-3.514986 -2.738419,-1.144414 -6.294276,-1.144414 h -5.844686 v 38.910074 h 4.6594 q 8.010897,0 12.016349,-4.904631 4.04632,-4.904631 4.04632,-14.754766 z m 46.1676,30.12261 H 140.26375 V 38.747846 h 34.25067 v 10.381469 h -21.78474 v 15.408716 h 20.27248 v 10.340598 h -20.27248 z"
     id="text8-3"
     style="font-weight:bold;font-size:83.7057px;line-height:0;font-family:'Droid Sans';-inkscape-font-specification:'Droid Sans Bold';letter-spacing:8.48369px;fill:#331e38;stroke-width:9.61929;stroke-linejoin:round;stroke-miterlimit:1000"
     inkscape:label="rdf"
     aria-label="RDF" />
  <path
     d="m 303.78429,84.034029 c 0.47508,-0.857572 1.27701,-0.974315 2.10968,-0.519849 0.93344,0.647049 0.87235,1.51162 0.32139,2.19721 l -12.03233,17.0036 c -3.17004,4.38553 -2.69169,8.83686 1.00819,11.45571 3.62403,2.447 7.94423,1.6 11.0861,-2.74162 l 4.92899,-6.63141 C 331.26165,76.605476 342.32302,41.996916 309.86272,18.927434 290.3349,5.0060594 265.68489,7.3788328 248.61199,31.299755 l -30.71097,43.086753 c -3.25276,4.627496 -2.5459,9.167348 1.68775,11.993404 4.11111,3.085428 8.59754,2.149259 11.75404,-2.230316 l 17.27015,-24.403089 c 0.73459,-0.735007 1.51162,-0.872354 2.19721,-0.321393 0.85756,0.475063 1.00075,1.265331 0.32139,2.197208 l -29.94239,41.894338 c -3.09415,4.55752 -2.61585,9.00874 1.51588,12.06922 4.21621,2.78621 8.76943,2.07345 11.92618,-2.30625 l 30.0386,-42.142441 c 0.47507,-0.857557 1.26533,-1.000752 2.19721,-0.321394 0.68558,0.55095 0.80231,1.35288 0.32139,2.197209 l -32.9516,46.177446 c -3.18172,4.35904 -2.69169,8.83683 1.61777,11.83477 4.0353,2.91355 8.59755,2.14926 11.76572,-2.20382 l 32.9516,-46.177428 c 0.64705,-0.933445 1.42408,-1.070793 2.19721,-0.321394 0.85756,0.475062 1.00076,1.26533 0.3214,2.197207 l -27.79797,39.051755 c -3.17003,4.38555 -2.6917,8.83686 1.61778,11.83479 4.03529,2.91356 8.59754,2.14926 11.7657,-2.20382 l 35.07861,-49.059512 z"
     id="path8"
     style="fill:#ffffff;fill-opacity:1;stroke-width:0.308467"
     inkscape:label="blad" />
</svg>
