<?xml version="1.0" encoding="UTF-8" standalone="no"?>
<svg
   viewBox="-20.237 0 999.99997 999.99996"
   version="1.1"
   id="svg8"
   sodipodi:docname="rdf-play-6.svg"
   inkscape:version="1.4.4 (dcaf3e7d9e, 2026-05-05)"
   width="1000"
   height="1000"
   xmlns:inkscape="http://www.inkscape.org/namespaces/inkscape"
   xmlns:sodipodi="http://sodipodi.sourceforge.net/DTD/sodipodi-0.dtd"
   xmlns="http://www.w3.org/2000/svg"
   xmlns:svg="http://www.w3.org/2000/svg">
  <defs
     id="defs8" />
  <sodipodi:namedview
     id="namedview8"
     pagecolor="#ffffff"
     bordercolor="#000000"
     borderopacity="0.25"
     inkscape:showpageshadow="2"
     inkscape:pageopacity="0.0"
     inkscape:pagecheckerboard="0"
     inkscape:deskcolor="#d1d1d1"
     inkscape:zoom="0.26920222"
     inkscape:cx="276.74364"
     inkscape:cy="540.48589"
     inkscape:window-width="1920"
     inkscape:window-height="1011"
     inkscape:window-x="0"
     inkscape:window-y="0"
     inkscape:window-maximized="1"
     inkscape:current-layer="layer1" />
  <g
     inkscape:groupmode="layer"
     id="layer1"
     inkscape:label="Layer 1"
     transform="matrix(2.2974618,0.08424411,-0.08424411,2.2974618,143.50313,-71.659101)">
    <path
       d="m 317.94304,226.25613 c -10.90856,-3.18333 -15.40688,-21.211 -16.73765,-34.18632 -1.31123,-19.22952 -3.14542,-41.11744 8.80167,-57.51108 2.609,-4.20575 18.56514,-12.35476 22.39419,-22.65623 16.48503,-26.404386 4.43823,-64.904465 -24.14139,-77.225725 -28.2362,-14.261366 -66.09063,2.025765 -75.15008,32.335369 -5.97435,13.934298 1.76398,25.843206 -6.71074,37.175426 -12.8218,16.79253 -32.13683,28.44059 -52.2036,34.45753 -15.38413,3.32959 -21.8896,-0.12435 -34.61509,-5.69135 -29.75272,-9.69082 -64.38064,11.48222 -69.272586,42.40742 -6.558306,30.04175 16.960042,61.88294 47.535466,64.58598 14.35648,1.70526 29.29859,-2.60406 40.55007,-11.6806 10.79838,-4.54967 28.73386,0.003 40.5495,6.30678 16.02191,8.09568 34.96525,18.88729 38.61055,38.06823 -1.89461,30.07714 24.90808,57.92125 55.14413,56.77458 31.23269,0.64645 58.21612,-29.55489 54.02477,-60.52063 -1.77206,-17.84647 -12.84951,-34.35589 -28.77921,-42.63938 z m -115.17209,-9.45335 c -33.74264,-22.85059 -32.59435,-44.94629 -4.66101,-66.12496 16.10524,-10.95317 34.39239,-23.56663 54.78732,-21.46798 15.55829,4.42257 26.53854,16.11807 27.33463,32.90388 2.49526,20.24848 4.36637,43.75865 -8.82672,60.89643 -24.39297,20.64435 -43.72483,8.03329 -68.63422,-6.20737 z"
       fill="#0C479C"
       id="path2"
       style="fill:#331e38;fill-opacity:1;stroke-width:0.73588"
       sodipodi:nodetypes="ccccccccccccccccccccccc"
       inkscape:label="connect" />
    <ellipse
       style="display:none;fill:#f2f2f2;fill-opacity:1;stroke:none;stroke-width:11.1459;stroke-linejoin:round;stroke-miterlimit:1000"
       id="path10"
       cx="292.22812"
       cy="274.66727"
       rx="54.664238"
       ry="54.751209"
       inkscape:label="bot-right" />
    <path
       id="path6-4"
       d="m 287.00603,270.23954 4.46004,-3.72878 -19.74408,-17.54751 c -2.23581,-1.95845 -4.42617,-2.58773 -6.64593,-0.73811 -1.98572,1.68835 -2.63659,4.65446 0.37525,7.25935 l 19.46492,17.17493 c 0.41576,-0.58167 1.103,-1.58709 2.09016,-2.41986 z m 30.77834,8.3215 -4.07324,-8.86662 c -1.13505,-2.67758 -2.3597,-4.15892 -4.28762,-5.20511 l -3.82748,-2.2912 c -2.34256,-1.21089 -4.12741,-1.66865 -6.34146,0.19799 l -11.6327,9.5775 c -1.96869,1.56907 -2.21739,4.04903 -0.61773,5.91666 1.59964,1.86762 4.04903,2.21738 5.91667,0.61773 l 4.32701,-3.53675 c 1.10533,-0.9214 2.60605,-1.37245 3.61611,-0.149 0.83165,0.99514 0.90098,2.10058 0.56138,3.79669 -1.60258,7.41504 -0.75608,10.6926 3.80431,16.1477 1.7769,2.10396 3.87068,4.14758 5.87032,5.43112 0.63734,0.19655 0.83164,0.99514 0.33521,1.45979 -0.47599,0.26475 -0.92019,0.30679 -1.29511,-0.0794 -2.57664,-1.90162 -4.70224,-3.72259 -6.27132,-5.69128 -4.3058,-5.07787 -5.47507,-8.19865 -4.56433,-15.48537 0.39861,-2.79127 0.87574,-3.80249 0.28494,-4.325 -0.17497,-0.25218 -0.47148,-0.5055 -0.96907,-0.0328 l -4.7144,3.91958 c -2.72871,2.23139 -6.389,1.27036 -8.36483,-1.08902 -1.0975,-1.46319 -1.39988,-3.15355 -1.21705,-4.43389 l -5.56338,-4.51102 c -2.2358,-1.95844 -4.40911,-2.70697 -6.51307,-0.93011 -2.22323,1.75984 -2.61843,4.52721 -0.51886,6.70165 l 9.39667,9.09139 c 2.60387,2.44919 4.42387,2.60367 6.29948,1.00514 0.47599,-0.26473 0.80204,-0.21817 1.08153,0.15445 0.47149,0.5055 0.41016,0.93495 -0.0942,1.39848 -2.71394,2.12791 -5.44951,1.51014 -8.22284,-1.17427 l -8.25259,-7.95428 c -2.11773,-2.04703 -4.32853,-2.59005 -6.4096,-0.91534 -1.98572,1.68833 -2.48439,4.44091 -0.38252,6.48569 l 7.97309,7.58164 c 2.68461,2.56612 4.40912,2.70697 6.39481,1.01875 0.37262,-0.2795 0.84521,-0.52036 1.31215,-0.0398 0.57601,0.62592 0.0546,1.20874 -0.45206,1.5746 -1.22576,1.02591 -2.90821,1.32929 -4.108,1.26355 l 6.23496,7.5363 c 9.01847,10.88744 20.6458,11.23328 30.53685,3.05439 9.1733,-7.64035 10.09301,-15.67223 4.76647,-27.2404 z m -25.32335,-12.88124 4.57697,-3.80936 2.87417,-1.77231 -10.76857,-19.31633 c -1.9031,-3.55016 -4.83413,-3.53854 -6.95608,-1.63442 -2.22324,1.75985 -1.97992,3.97735 -0.58928,6.45615 l 10.8831,20.10477 z"
       style="fill:#ffffff;fill-opacity:1;stroke-width:0.171372"
       inkscape:label="schaar" />
    <ellipse
       style="display:none;fill:#f2f2f2;fill-opacity:1;stroke:none;stroke-width:17.352;stroke-linejoin:round;stroke-miterlimit:1000"
       id="path11"
       ry="55.098251"
       rx="54.50029"
       cy="185.42191"
       cx="123.86234"
       inkscape:label="left" />
    <path
       id="path7-1"
       d="m 144.94165,203.11754 -6.76288,0.2927 c -3.72039,0.1081 -6.21922,-1.46524 -7.32204,-4.7199 -4.08221,0.18814 -7.12342,-2.98022 -7.20729,-8.04136 L 123.1689,179.8038 c -0.0266,-0.74688 -0.34321,-1.23133 -1.08182,-1.20007 -1.03966,0.003 -1.45592,0.48962 -3.53582,3.15063 -4.41482,5.73538 -9.42486,8.63334 -15.56161,8.84224 l -3.429376,-0.17561 c -0.810441,-0.15129 -1.162966,-0.51396 -1.142585,-1.09237 -0.02659,-0.74687 0.328899,-1.12533 1.031589,-1.03483 1.086652,0.16505 2.518662,0.2409 3.528722,0.23167 5.72792,-0.29759 9.69928,-2.61274 14.40041,-8.62333 2.01339,-2.52374 3.19607,-3.34229 4.98266,-3.37225 1.77829,-0.0347 2.86844,1.17005 2.9277,3.13697 l 0.46497,11.41525 c 0.11724,3.45243 2.35451,5.74135 5.51419,5.60103 3.51317,-0.22499 5.43912,-2.36117 5.27029,-5.97386 l -0.80088,-22.7689 c -0.18281,-2.30972 -0.86412,-3.4258 -3.04975,-5.5544 l -3.93617,-3.67308 c -2.02383,-1.87341 -3.6508,-2.64909 -5.06608,-2.71552 -1.82526,-0.13377 -4.52628,0.97537 -10.12587,4.41471 -8.92255,5.39942 -20.695017,14.03108 -20.312554,28.47845 0.729694,18.4793 10.171834,26.74378 30.324944,25.90928 l 9.68865,-0.26994 c -0.93538,-0.97549 -1.42968,-2.42312 -1.60609,-4.43435 -0.0642,-0.93196 0.35203,-1.41813 0.99119,-1.50549 0.63915,-0.0874 1.11598,0.34544 1.08181,1.20006 0.0677,3.2497 1.65773,4.59444 5.36424,4.51134 l 6.33114,-0.2631 c 3.45242,-0.11724 5.67761,-2.53237 5.54922,-5.67438 -0.17797,-3.34475 -2.54159,-5.40968 -5.97387,-5.27029 z m -7.14581,-34.43046 0.21789,6.89547 9.00253,-0.35121 c 3.45241,-0.11724 5.90974,-2.40144 5.78134,-5.54346 -0.24807,-3.22045 -2.64924,-5.47041 -6.08153,-5.331 l -9.64165,0.43861 c 0.47409,0.99929 0.62862,2.25527 0.71931,3.93416 z m -4.9364,29.82234 c 0.98219,2.17072 2.72638,2.99068 5.69878,2.93039 l 8.90317,-0.40724 c 3.44304,-0.10067 5.6776,-2.53239 5.54919,-5.6744 -0.12375,-3.15032 -2.6023,-5.30201 -6.03462,-5.16255 l -8.44181,0.3834 c 0.17892,4.35014 -1.79414,7.34453 -5.66749,7.95624 z m 5.1754,-20.87169 0.48054,10.84518 10.5129,-0.39509 c 3.44307,-0.10065 5.67761,-2.53237 5.44151,-5.73514 -0.0677,-3.24968 -2.4173,-5.33957 -5.9268,-5.10172 l -10.51288,0.39508 z"
       style="fill:#ffffff;fill-opacity:1;stroke-width:0.202975"
       inkscape:label="steen" />
    <ellipse
       style="display:none;fill:#f2f2f2;fill-opacity:1;stroke:none;stroke-width:13.659;stroke-linejoin:round;stroke-miterlimit:1000"
       id="path9"
       cx="285.24451"
       cy="83.803017"
       rx="54.589119"
       ry="54.279259"
       inkscape:label="top-right" />
    <path
       d="m 303.03996,89.766598 c 0.27579,-0.497831 0.74132,-0.565602 1.2247,-0.301779 0.54187,0.37562 0.50641,0.877514 0.18656,1.275508 l -6.98491,9.870793 c -1.84025,2.54586 -1.56256,5.12991 0.58526,6.65019 2.1038,1.42051 4.61173,0.92882 6.43562,-1.59155 l 2.86135,-3.84961 c 11.64236,-16.365918 18.06362,-36.456612 -0.77998,-49.84873 -11.33613,-8.081529 -25.64577,-6.704104 -35.5568,7.182285 l -17.8281,25.012388 c -1.88826,2.686319 -1.47792,5.321758 0.97977,6.962319 2.38654,1.791128 4.99098,1.247671 6.82336,-1.294726 l 10.02554,-14.166292 c 0.42643,-0.426681 0.87751,-0.506413 1.2755,-0.186573 0.49783,0.27578 0.58095,0.73454 0.18657,1.275506 L 255.09248,101.0765 c -1.7962,2.6457 -1.51854,5.22969 0.87998,7.00634 2.44757,1.61742 5.09077,1.20366 6.9233,-1.33881 l 17.43778,-24.464206 c 0.27578,-0.497822 0.73454,-0.580949 1.2755,-0.186573 0.39799,0.319833 0.46576,0.785364 0.18657,1.275506 L 262.6668,110.17533 c -1.84702,2.53048 -1.56256,5.12989 0.93914,6.87023 2.34254,1.69135 4.99099,1.24768 6.83015,-1.27934 l 19.1288,-26.806567 c 0.37562,-0.541876 0.8267,-0.621609 1.27551,-0.186573 0.49782,0.275779 0.58096,0.734539 0.18658,1.275505 l -16.13707,22.670025 c -1.84024,2.54587 -1.56256,5.12991 0.93914,6.87024 2.34254,1.69136 4.99098,1.24768 6.83014,-1.27934 l 20.36356,-28.479654 z"
       id="path8"
       style="fill:#ffffff;fill-opacity:1;stroke-width:0.179069"
       inkscape:label="blad" />
  </g>
  <rect
     style="display:none;fill:#f2f2f2;fill-opacity:1;stroke:none;stroke-width:13.3684;stroke-linejoin:round;stroke-miterlimit:1000"
     id="rect12"
     width="228.22063"
     height="120.9258"
     x="-20.237"
     y="286.60651"
     inkscape:label="bot-allign" />
  <text
     xml:space="preserve"
     style="font-weight:bold;font-size:348.774px;line-height:0;font-family:'Droid Sans';-inkscape-font-specification:'Droid Sans Bold';letter-spacing:25px;writing-mode:lr-tb;direction:ltr;fill:#331e38;fill-opacity:1;stroke:none;stroke-width:40.0801;stroke-linejoin:round;stroke-miterlimit:1000"
     x="6.9511161"
     y="980.00012"
     id="text8"
     inkscape:label="play"><tspan
       sodipodi:role="line"
       id="tspan8"
       x="6.9511161"
       y="980.00012"
       style="letter-spacing:25px;fill:#331e38;fill-opacity:1;stroke-width:40.0801">PLAY</tspan></text>
  <rect
     style="display:none;fill:#f2f2f2;fill-opacity:1;stroke:none;stroke-width:15.9373;stroke-linejoin:round;stroke-miterlimit:1000"
     id="rect11"
     width="219.13618"
     height="137.25044"
     x="-20.237"
     y="1.0658141e-14"
     inkscape:label="top-allign" />
  <text
     xml:space="preserve"
     style="font-weight:bold;font-size:280.164px;line-height:0;font-family:'Droid Sans';-inkscape-font-specification:'Droid Sans Bold';letter-spacing:20px;writing-mode:lr-tb;direction:ltr;fill:#331e38;fill-opacity:1;stroke:none;stroke-width:32.196;stroke-linejoin:round;stroke-miterlimit:1000"
     x="13.11528"
     y="709.99988"
     id="text8-3"
     inkscape:label="rdf"><tspan
       sodipodi:role="line"
       id="tspan8-0"
       x="13.11528"
       y="709.99988"
       style="letter-spacing:20px;fill:#331e38;fill-opacity:1;stroke-width:32.196">RDF</tspan></text>
</svg>
